<svg width="71" height="71" viewBox="0 0 71 71" fill="none" xmlns="http://www.w3.org/2000/svg">
<mask id="path-1-inside-1_144_38" fill="white">
<path d="M71 35.5C71 55.1061 55.1061 71 35.5 71C15.8939 71 0 55.1061 0 35.5C0 15.8939 15.8939 0 35.5 0C55.1061 0 71 15.8939 71 35.5Z"/>
</mask>
<path d="M37.1213 12.8787C35.9497 11.7071 34.0503 11.7071 32.8787 12.8787L13.7868 31.9706C12.6152 33.1421 12.6152 35.0416 13.7868 36.2132C14.9584 37.3848 16.8579 37.3848 18.0294 36.2132L35 19.2426L51.9706 36.2132C53.1421 37.3848 55.0416 37.3848 56.2132 36.2132C57.3848 35.0416 57.3848 33.1421 56.2132 31.9706L37.1213 12.8787ZM35 57H38V15H35H32V57H35ZM71 35.5H65C65 51.7924 51.7924 65 35.5 65V71V77C58.4198 77 77 58.4198 77 35.5H71ZM35.5 71V65C19.2076 65 6 51.7924 6 35.5H0H-6C-6 58.4198 12.5802 77 35.5 77V71ZM0 35.5H6C6 19.2076 19.2076 6 35.5 6V0V-6C12.5802 -6 -6 12.5802 -6 35.5H0ZM35.5 0V6C51.7924 6 65 19.2076 65 35.5H71H77C77 12.5802 58.4198 -6 35.5 -6V0Z" fill="white" mask="url(#path-1-inside-1_144_38)"/>
</svg>
