<svg width="23" height="20" viewBox="0 0 23 20" fill="none" xmlns="http://www.w3.org/2000/svg">
<path fill-rule="evenodd" clip-rule="evenodd" d="M3.00511 -0.0310076L19.9804 -0.0310061C21.5412 -0.031006 22.8081 1.08816 22.8081 2.46691L22.8081 17.4715C22.8081 18.8498 21.5412 19.969 19.9804 19.969L3.00511 19.969C1.44432 19.969 0.177387 18.8498 0.177387 17.4715L0.177389 2.46691C0.177389 1.08816 1.44432 -0.0310077 3.00511 -0.0310076ZM15.2612 1.63566L15.2612 18.3023L19.512 18.3023C20.2903 18.3019 20.9219 17.744 20.9219 17.0569L20.9219 2.88108C20.9219 2.19399 20.2903 1.63566 19.512 1.63566L15.2612 1.63566ZM3.47349 18.3023L13.3745 18.3023L13.3745 1.63566L3.47349 1.63566C2.69522 1.63566 2.06364 2.19399 2.06364 2.88108L2.06364 17.0569C2.06364 17.744 2.69522 18.3019 3.47349 18.3023Z" fill="#FBFCD4"/>
</svg>
